<svg width="43" height="38" viewBox="0 0 43 38" fill="none" xmlns="http://www.w3.org/2000/svg">
<path d="M13.2584 37.8726H10.3983C7.50928 37.8726 5.05363 36.8904 3.06022 34.9258C1.26904 33.0769 0.402344 30.7079 0.402344 27.8189V11.0338C0.402344 8.4915 1.12459 6.29586 2.59798 4.47579C4.44694 2.1357 6.98926 0.980103 10.3116 0.980103H29.3501H32.8458C35.7348 0.980103 38.1905 1.96236 40.2128 3.92688C41.975 5.74695 42.8706 8.14482 42.8706 11.0338V14.7029V27.8767C42.8706 30.3901 42.1195 32.5569 40.6461 34.3769C38.7394 36.717 36.1393 37.8726 32.8458 37.8726H10.3983H13.2584ZM7.04704 24.121V28.0211C7.04704 29.3212 7.48039 30.2457 8.37598 30.7946C9.09823 31.0546 9.7627 31.199 10.3983 31.199H13.2584H32.9614C34.3192 31.199 35.2726 30.7368 35.8215 29.8412C36.0815 29.1478 36.197 28.4545 36.197 27.8189V14.7029V10.8316C36.197 9.53154 35.7637 8.57817 34.8681 8.05815C34.1748 7.79814 33.4814 7.65369 32.8458 7.65369H29.3501H10.1961C8.896 7.65369 7.97152 8.11593 7.42261 9.01152C7.1626 9.70488 7.04704 10.3982 7.04704 11.0338V28.0211V24.121Z" fill="white"/>
</svg>
